ffmpeg started on 2016-11-26 at 20:54:59
Report written to "Output/NVENCh264/results/ffmpeg/crowd_run_2160p50ll12000k.log"
Command line:
Tools/ffmpeg/ffmpeg -benchmark -y -i Input/y4m/crowd_run_2160p50.y4m -c:v h264_nvenc -preset ll -b:v 12000k -an Output/NVENCh264/encoded/crowd_run_2160p50ll12000k.mkv
ffmpeg version N-82227-gdb23fde Copyright (c) 2000-2016 the FFmpeg developers
  built with gcc 5.4.0 (Ubuntu 5.4.0-6ubuntu1~16.04.2) 20160609
  configuration: --prefix=/home/jaroslav/ffmpeg_build --pkg-config-flags=--static --extra-cflags=-I/home/jaroslav/ffmpeg_build/include --extra-ldflags=-L/home/jaroslav/ffmpeg_build/lib --bindir=/home/jaroslav/bin --enable-gpl --enable-libass --enable-libfdk-aac --enable-libfreetype --enable-libmp3lame --enable-libopus --enable-libtheora --enable-libvorbis --enable-libvpx --enable-libx264 --enable-libx265 --enable-nvenc --enable-libmfx --enable-libxvid --enable-libgsm --enable-libopencore-amrnb --enable-version3 --enable-nonfree
  libavutil      55. 35.100 / 55. 35.100
  libavcodec     57. 66.101 / 57. 66.101
  libavformat    57. 57.100 / 57. 57.100
  libavdevice    57.  2.100 / 57.  2.100
  libavfilter     6. 66.100 /  6. 66.100
  libswscale      4.  3.100 /  4.  3.100
  libswresample   2.  4.100 /  2.  4.100
  libpostproc    54.  2.100 / 54.  2.100
Input #0, yuv4mpegpipe, from 'Input/y4m/crowd_run_2160p50.y4m':
  Duration: 00:00:10.00, start: 0.000000, bitrate: 4976642 kb/s
    Stream #0:0: Video: rawvideo (I420 / 0x30323449), yuv420p(progressive), 3840x2160, SAR 1:1 DAR 16:9, 50 fps, 50 tbr, 50 tbn, 50 tbc
[h264_nvenc @ 0x3c091c0] The variable bitrate rate-control requires the 'qmin' and/or 'qmax' option set.
Output #0, matroska, to 'Output/NVENCh264/encoded/crowd_run_2160p50ll12000k.mkv':
  Metadata:
    encoder         : Lavf57.57.100
    Stream #0:0: Video: h264 (h264_nvenc) (Main) (H264 / 0x34363248), yuv420p, 3840x2160 [SAR 1:1 DAR 16:9], q=-1--1, 12000 kb/s, 50 fps, 1k tbn, 50 tbc
    Metadata:
      encoder         : Lavc57.66.101 h264_nvenc
    Side data:
      cpb: bitrate max/min/avg: 0/0/12000000 buffer size: 24000000 vbv_delay: -1
Stream mapping:
  Stream #0:0 -> #0:0 (rawvideo (native) -> h264 (h264_nvenc))
Press [q] to stop, [?] for help
frame=    9 fps=0.0 q=0.0 size=       0kB time=00:00:00.00 bitrate=N/A speed=   0x    frame=   20 fps= 19 q=0.0 size=       0kB time=00:00:00.00 bitrate=N/A speed=   0x    frame=   30 fps= 19 q=0.0 size=       0kB time=00:00:00.00 bitrate=N/A speed=   0x    frame=   44 fps= 21 q=42.0 size=       1kB time=00:00:00.26 bitrate=  23.0kbits/s speed=0.124x    frame=   62 fps= 24 q=42.0 size=       1kB time=00:00:00.62 bitrate=   9.6kbits/s speed=0.237x    frame=   80 fps= 25 q=42.0 size=       1kB time=00:00:00.98 bitrate=   6.1kbits/s speed=0.312x    frame=   98 fps= 27 q=41.0 size=       1kB time=00:00:01.34 bitrate=   4.5kbits/s speed=0.366x    frame=  115 fps= 28 q=42.0 size=       1kB time=00:00:01.68 bitrate=   3.6kbits/s speed=0.404x    frame=  124 fps= 15 q=42.0 size=       1kB time=00:00:01.86 bitrate=   3.2kbits/s speed=0.229x    frame=  125 fps= 14 q=42.0 size=       1kB time=00:00:01.88 bitrate=   3.2kbits/s speed=0.204x    frame=  142 fps= 15 q=41.0 size=       1kB time=00:00:02.22 bitrate=   2.7kbits/s speed=0.228x    frame=  159 fps= 15 q=42.0 size=       1kB time=00:00:02.56 bitrate=   2.3kbits/s speed=0.243x    frame=  166 fps= 15 q=41.0 size=       1kB time=00:00:02.70 bitrate=   2.2kbits/s speed=0.244x    frame=  183 fps= 16 q=42.0 size=       1kB time=00:00:03.04 bitrate=   2.0kbits/s speed=0.262x    frame=  200 fps= 17 q=41.0 size=       1kB time=00:00:03.38 bitrate=   1.8kbits/s speed=0.279x    frame=  212 fps= 17 q=42.0 size=    5133kB time=00:00:03.62 bitrate=11613.8kbits/s speed=0.287x    frame=  229 fps= 17 q=41.0 size=    5133kB time=00:00:03.96 bitrate=10616.9kbits/s speed=0.302x    frame=  247 fps= 18 q=42.0 size=    5133kB time=00:00:04.32 bitrate=9732.3kbits/s speed=0.317x    frame=  265 fps= 19 q=42.0 size=    5133kB time=00:00:04.68 bitrate=8983.9kbits/s speed=0.331x    frame=  282 fps= 19 q=42.0 size=    7306kB time=00:00:05.02 bitrate=11920.6kbits/s speed=0.343x    frame=  298 fps= 20 q=42.0 size=    7306kB time=00:00:05.34 bitrate=11206.4kbits/s speed=0.35x    frame=  303 fps= 19 q=42.0 size=    7306kB time=00:00:05.44 bitrate=11000.5kbits/s speed=0.341x    frame=  320 fps= 19 q=42.0 size=    7306kB time=00:00:05.78 bitrate=10353.5kbits/s speed=0.35x    frame=  329 fps= 19 q=42.0 size=    7306kB time=00:00:05.96 bitrate=10040.9kbits/s speed=0.35x    frame=  347 fps= 20 q=42.0 size=    7306kB time=00:00:06.32 bitrate=9469.0kbits/s speed=0.36x    frame=  365 fps= 20 q=42.0 size=    7306kB time=00:00:06.68 bitrate=8958.8kbits/s speed=0.37x    frame=  383 fps= 21 q=41.0 size=    7306kB time=00:00:07.04 bitrate=8500.7kbits/s speed=0.379x    frame=  401 fps= 21 q=42.0 size=    7306kB time=00:00:07.40 bitrate=8087.2kbits/s speed=0.388x    frame=  415 fps= 21 q=42.0 size=    7306kB time=00:00:07.68 bitrate=7792.4kbits/s speed=0.388x    frame=  433 fps= 21 q=42.0 size=    7306kB time=00:00:08.04 bitrate=7443.5kbits/s speed=0.396x    frame=  451 fps= 22 q=43.0 size=    7306kB time=00:00:08.40 bitrate=7124.6kbits/s speed=0.403x    frame=  468 fps= 22 q=41.0 size=   12431kB time=00:00:08.74 bitrate=11649.8kbits/s speed=0.41x    frame=  486 fps= 22 q=42.0 size=   12431kB time=00:00:09.10 bitrate=11189.0kbits/s speed=0.417x    frame=  496 fps= 22 q=42.0 size=   12431kB time=00:00:09.30 bitrate=10948.4kbits/s speed=0.415x    frame=  500 fps= 22 q=42.0 Lsize=   14660kB time=00:00:09.98 bitrate=12032.3kbits/s speed=0.442x    
video:14655kB audio:0kB subtitle:0kB other streams:0kB global headers:0kB muxing overhead: 0.032505%
bench: utime=1.108s
bench: maxrss=1408968kB
